<svg width="20" height="20" viewBox="0 0 20 20" fill="none" xmlns="http://www.w3.org/2000/svg">
<path d="M8.09701 12.3881L9.35324 17.413C9.52156 18.0863 10.4784 18.0863 10.6468 17.413L11.903 12.3881C11.9627 12.1492 12.1492 11.9627 12.3881 11.903L17.413 10.6468C18.0863 10.4784 18.0863 9.52156 17.413 9.35324L12.3881 8.09701C12.1492 8.0373 11.9627 7.8508 11.903 7.61194L10.6468 2.58705C10.4784 1.91375 9.52156 1.91374 9.35324 2.58705L8.09701 7.61194C8.0373 7.8508 7.8508 8.0373 7.61194 8.09701L2.58705 9.35324C1.91375 9.52156 1.91374 10.4784 2.58705 10.6468L7.61194 11.903C7.8508 11.9627 8.0373 12.1492 8.09701 12.3881Z" stroke="url(#paint0_linear_6157_455)"/>
<circle cx="15.999" cy="4.00024" r="1.5" stroke="url(#paint1_linear_6157_455)"/>
<path fill-rule="evenodd" clip-rule="evenodd" d="M16.4994 13.3567C16.4994 13.1726 16.3501 13.0234 16.166 13.0234C15.9819 13.0234 15.8327 13.1726 15.8327 13.3567V14.5498C15.8327 14.6032 15.7681 14.63 15.7303 14.5922C15.7069 14.5688 15.6689 14.5688 15.6455 14.5922L15.259 14.9787C15.2355 15.0021 15.2355 15.0402 15.259 15.0637C15.2968 15.1015 15.27 15.1662 15.2165 15.1662H14.0225C13.8384 15.1662 13.6891 15.3155 13.6891 15.4996C13.6891 15.6837 13.8384 15.8329 14.0225 15.8329H15.2165C15.2701 15.8329 15.297 15.8978 15.2591 15.9357C15.2355 15.9593 15.2355 15.9974 15.2591 16.0209L15.6455 16.4073C15.6689 16.4308 15.7069 16.4308 15.7303 16.4073C15.7681 16.3695 15.8327 16.3963 15.8327 16.4497V17.6424C15.8327 17.8265 15.9819 17.9758 16.166 17.9758C16.3501 17.9758 16.4994 17.8265 16.4994 17.6424V16.4497C16.4994 16.396 16.5644 16.3691 16.6024 16.4071C16.6259 16.4306 16.6641 16.4306 16.6877 16.4071L17.0738 16.0209C17.0974 15.9974 17.0974 15.9593 17.0738 15.9357C17.0359 15.8978 17.0628 15.8329 17.1164 15.8329H18.3082C18.4923 15.8329 18.6415 15.6837 18.6415 15.4996C18.6415 15.3155 18.4923 15.1662 18.3082 15.1662H17.1164C17.0629 15.1662 17.0361 15.1015 17.074 15.0637C17.0974 15.0402 17.0974 15.0021 17.074 14.9787L16.6877 14.5924C16.6641 14.5689 16.6259 14.5689 16.6024 14.5924C16.5644 14.6304 16.4994 14.6035 16.4994 14.5498V13.3567Z" fill="url(#paint2_linear_6157_455)"/>
<defs>
<linearGradient id="paint0_linear_6157_455" x1="10" y1="0" x2="10" y2="20" gradientUnits="userSpaceOnUse">
<stop stop-color="#D293FF"/>
<stop offset="1" stop-color="#3F4FB4"/>
</linearGradient>
<linearGradient id="paint1_linear_6157_455" x1="15.999" y1="2.00024" x2="15.999" y2="6.00024" gradientUnits="userSpaceOnUse">
<stop stop-color="#D293FF"/>
<stop offset="1" stop-color="#3F4FB4"/>
</linearGradient>
<linearGradient id="paint2_linear_6157_455" x1="16.1653" y1="13.0234" x2="16.1653" y2="17.9758" gradientUnits="userSpaceOnUse">
<stop stop-color="#D293FF"/>
<stop offset="1" stop-color="#3F4FB4"/>
</linearGradient>
</defs>
</svg>
