<svg width="24" height="24" viewBox="0 0 24 24" fill="none" xmlns="http://www.w3.org/2000/svg">
<path d="M20.1616 17.7796L19.4092 17.2458C19.2578 17.4592 19.2041 17.7269 19.2616 17.9821L20.1616 17.7796ZM21.1111 21.9997L20.7563 22.8513C21.0747 22.984 21.4404 22.928 21.7045 22.7061C21.9686 22.4843 22.0869 22.1337 22.0112 21.7972L21.1111 21.9997ZM17.3665 20.4395L17.7213 19.5879C17.4428 19.4719 17.1252 19.4993 16.8707 19.6615L17.3665 20.4395ZM22.9225 12C22.9225 5.96763 18.0323 1.07746 12 1.07746V2.92254C17.0133 2.92254 21.0775 6.98664 21.0775 12H22.9225ZM20.914 18.3134C22.1789 16.5305 22.9225 14.3507 22.9225 12H21.0775C21.0775 13.9558 20.46 15.7647 19.4092 17.2458L20.914 18.3134ZM22.0112 21.7972L21.0616 17.5771L19.2616 17.9821L20.2111 22.2022L22.0112 21.7972ZM17.0117 21.2911L20.7563 22.8513L21.4659 21.1482L17.7213 19.5879L17.0117 21.2911ZM12 22.9225C14.1556 22.9225 16.168 22.2971 17.8622 21.2175L16.8707 19.6615C15.4639 20.5579 13.794 21.0774 12 21.0774V22.9225ZM1.07746 12C1.07746 18.0323 5.96767 22.9225 12 22.9225V21.0774C6.98667 21.0774 2.92254 17.0133 2.92254 12H1.07746ZM12 1.07746C5.96767 1.07746 1.07746 5.96763 1.07746 12H2.92254C2.92254 6.98664 6.98667 2.92254 12 2.92254V1.07746Z" fill="#5038BC"/>
<path d="M6.46155 12.8659L6.47485 9.46128L10.5385 9.46127L10.5249 12.9322V12.9323L6.46155 12.8659ZM6.46155 12.8659L8.75231 12.8416C8.85159 12.8406 8.94856 12.8716 9.02881 12.93C9.17437 13.0361 9.23589 13.1837 9.26201 13.2886C9.2889 13.3966 9.29054 13.505 9.28272 13.5991C9.26694 13.7889 9.20621 13.9965 9.11576 14.195C8.93555 14.5906 8.5958 15.0391 8.07973 15.2953C8.05284 15.3087 8.03644 15.3196 8.0269 15.3271C8.0283 15.3379 8.03177 15.3555 8.04027 15.3817C8.04775 15.4046 8.057 15.428 8.06788 15.4525C8.38597 15.3532 8.6185 15.2431 8.79535 15.1412C8.96727 15.0421 9.07324 14.962 9.18136 14.8803C9.23383 14.8407 9.28681 14.8006 9.34809 14.7578C9.5279 14.6144 9.78482 14.3347 10.0223 13.9977C10.2654 13.6528 10.4513 13.2997 10.5199 13.0314C10.5216 13.0247 10.5235 13.0179 10.5255 13.0113L6.46155 12.8659ZM8.01524 15.3384C8.01541 15.3384 8.01649 15.3373 8.01798 15.3349C8.01582 15.3371 8.01508 15.3383 8.01524 15.3384Z" stroke="#5038BC" stroke-width="0.922535" stroke-linecap="round" stroke-linejoin="round"/>
<path d="M13.4615 12.8659L13.4749 9.46128L17.5385 9.46127L17.5249 12.9322V12.9323L13.4615 12.8659ZM13.4615 12.8659L15.7523 12.8416C15.8516 12.8406 15.9486 12.8716 16.0288 12.93C16.1744 13.0361 16.2359 13.1837 16.262 13.2886C16.2889 13.3966 16.2905 13.505 16.2827 13.5991C16.2669 13.7889 16.2062 13.9965 16.1158 14.195C15.9356 14.5906 15.5958 15.0391 15.0797 15.2953C15.0528 15.3087 15.0364 15.3196 15.0269 15.3271C15.0283 15.3379 15.0318 15.3555 15.0403 15.3817C15.0477 15.4046 15.057 15.428 15.0679 15.4525C15.386 15.3532 15.6185 15.2431 15.7954 15.1412C15.9673 15.0421 16.0732 14.962 16.1814 14.8803C16.2338 14.8407 16.2868 14.8006 16.3481 14.7578C16.5279 14.6144 16.7848 14.3347 17.0223 13.9977C17.2654 13.6528 17.4513 13.2997 17.5199 13.0314C17.5216 13.0247 17.5235 13.0179 17.5255 13.0113L13.4615 12.8659ZM15.0152 15.3384C15.0154 15.3384 15.0165 15.3373 15.018 15.3349C15.0158 15.3371 15.0151 15.3383 15.0152 15.3384Z" stroke="#5038BC" stroke-width="0.922535" stroke-linecap="round" stroke-linejoin="round"/>
</svg>
