<svg width="230" height="145" viewBox="0 0 230 145" fill="none" xmlns="http://www.w3.org/2000/svg">
<path d="M44 74.0956C44 73.2885 43.5149 72.5605 42.77 72.2498L19.77 62.6555C18.4525 62.1059 17 63.0738 17 64.5013V108.243C17 109.833 18.7643 110.787 20.0945 109.917L28.3975 104.489C29.2936 103.903 30.4922 104.126 31.1166 104.996L40.3754 117.892C41.5086 119.471 44 118.669 44 116.726V74.0956Z" fill="#FFD668"/>
<path d="M172.279 71.2702C172.383 64.0642 165.062 59.117 158.415 61.9024L126.135 75.4291C122.419 76.9865 120 80.6225 120 84.6521V134.39C120 141.807 127.791 146.643 134.437 143.351L166.027 127.71C169.387 126.046 171.534 122.642 171.589 118.893L172.279 71.2702Z" fill="#64E6FB"/>
<path d="M55.9791 71.2702C55.8747 64.0642 63.1962 59.117 69.8429 61.9024L102.123 75.4291C105.839 76.9865 108.258 80.6225 108.258 84.6521V134.39C108.258 141.807 100.467 146.643 93.8205 143.351L62.2309 127.71C58.8707 126.046 56.7236 122.642 56.6693 118.893L55.9791 71.2702Z" fill="#64E6FB"/>
<path d="M223.266 41.6172C231.238 45.216 231.074 56.5933 223.001 59.9607L133.85 97.1496C127.262 99.8974 120 95.0579 120 87.9203V10.486C120 3.2243 127.496 -1.61613 134.114 1.37168L223.266 41.6172Z" fill="#5038BC"/>
<path d="M5.99214 41.6172C-1.97999 45.216 -1.81588 56.5933 6.25672 59.9607L95.4081 97.1496C101.995 99.8974 109.258 95.0579 109.258 87.9203V10.486C109.258 3.2243 101.762 -1.61613 95.1435 1.37168L5.99214 41.6172Z" fill="#5038BC"/>
</svg>
