<svg width="1008" height="160" viewBox="0 0 1008 160" fill="none" xmlns="http://www.w3.org/2000/svg">
<path d="M59 81.3456C59 80.5385 58.5149 79.8105 57.77 79.4998L34.77 69.9055C33.4525 69.3559 32 70.3238 32 71.7513V115.493C32 117.083 33.7643 118.037 35.0945 117.167L43.3975 111.739C44.2936 111.153 45.4922 111.376 46.1166 112.246L55.3754 125.142C56.5086 126.721 59 125.919 59 123.976V81.3456Z" fill="#FFD668"/>
<path d="M187.279 78.5202C187.383 71.3142 180.062 66.367 173.415 69.1524L141.135 82.6791C137.419 84.2365 135 87.8725 135 91.9021V141.64C135 149.057 142.791 153.893 149.437 150.601L181.027 134.96C184.387 133.296 186.534 129.892 186.589 126.143L187.279 78.5202Z" fill="#64E6FB"/>
<path d="M70.9791 78.5202C70.8747 71.3142 78.1962 66.367 84.8429 69.1524L117.123 82.6791C120.839 84.2365 123.258 87.8725 123.258 91.9021V141.64C123.258 149.057 115.467 153.893 108.82 150.601L77.2309 134.96C73.8707 133.296 71.7236 129.892 71.6693 126.143L70.9791 78.5202Z" fill="#64E6FB"/>
<path d="M238.266 48.8672C246.238 52.466 246.074 63.8433 238.001 67.2107L148.85 104.4C142.262 107.147 135 102.308 135 95.1703V17.736C135 10.4743 142.496 5.63387 149.114 8.62168L238.266 48.8672Z" fill="#5038BC"/>
<path d="M20.9921 48.8672C13.02 52.466 13.1841 63.8433 21.2567 67.2107L110.408 104.4C116.995 107.147 124.258 102.308 124.258 95.1703V17.736C124.258 10.4743 116.762 5.63387 110.144 8.62168L20.9921 48.8672Z" fill="#5038BC"/>
<path d="M327.775 42.0734V56.6958H307.923V117H289.672V56.6958H269.819V42.0734H327.775ZM393.077 86.2609C393.077 87.9686 392.97 89.7475 392.757 91.5975H351.451C351.736 95.2976 352.91 98.1438 354.973 100.136C357.108 102.057 359.705 103.018 362.765 103.018C367.319 103.018 370.485 101.097 372.264 97.2544H391.689C390.693 101.168 388.879 104.69 386.246 107.821C383.684 110.952 380.447 113.407 376.533 115.186C372.62 116.964 368.244 117.854 363.405 117.854C357.57 117.854 352.376 116.609 347.822 114.118C343.268 111.628 339.71 108.07 337.149 103.445C334.587 98.8198 333.306 93.412 333.306 87.2215C333.306 81.031 334.552 75.6231 337.042 70.998C339.604 66.3729 343.161 62.8152 347.715 60.3247C352.269 57.8343 357.499 56.5891 363.405 56.5891C369.169 56.5891 374.292 57.7987 378.775 60.218C383.257 62.6373 386.744 66.0883 389.235 70.5711C391.796 75.0539 393.077 80.2838 393.077 86.2609ZM374.399 81.4579C374.399 78.3271 373.331 75.8366 371.197 73.9866C369.062 72.1365 366.394 71.2115 363.192 71.2115C360.132 71.2115 357.535 72.101 355.4 73.8798C353.337 75.6587 352.056 78.1847 351.558 81.4579H374.399ZM478.699 56.8026C486.1 56.8026 491.97 59.0439 496.31 63.5267C500.722 68.0095 502.928 74.2356 502.928 82.205V117H484.783V84.6599C484.783 80.8175 483.751 77.8645 481.688 75.801C479.696 73.6664 476.92 72.599 473.363 72.599C469.805 72.599 466.994 73.6664 464.931 75.801C462.938 77.8645 461.942 80.8175 461.942 84.6599V117H443.798V84.6599C443.798 80.8175 442.766 77.8645 440.702 75.801C438.71 73.6664 435.935 72.599 432.377 72.599C428.819 72.599 426.009 73.6664 423.945 75.801C421.953 77.8645 420.957 80.8175 420.957 84.6599V117H402.705V57.4429H420.957V64.9143C422.807 62.4238 425.226 60.4671 428.215 59.0439C431.203 57.5497 434.583 56.8026 438.354 56.8026C442.837 56.8026 446.822 57.7631 450.308 59.6843C453.866 61.6055 456.641 64.345 458.634 67.9028C460.697 64.6296 463.508 61.9613 467.065 59.8978C470.623 57.8343 474.501 56.8026 478.699 56.8026ZM512.063 87.1147C512.063 80.9954 513.202 75.6231 515.479 70.998C517.827 66.3729 520.993 62.8152 524.978 60.3247C528.963 57.8343 533.41 56.5891 538.32 56.5891C542.518 56.5891 546.182 57.4429 549.313 59.1507C552.515 60.8584 554.97 63.0998 556.678 65.8749V57.4429H574.929V117H556.678V108.568C554.899 111.343 552.409 113.585 549.207 115.292C546.076 117 542.411 117.854 538.213 117.854C533.374 117.854 528.963 116.609 524.978 114.118C520.993 111.557 517.827 107.963 515.479 103.338C513.202 98.6419 512.063 93.2341 512.063 87.1147ZM556.678 87.2215C556.678 82.6675 555.397 79.0742 552.835 76.4414C550.345 73.8087 547.285 72.4923 543.656 72.4923C540.027 72.4923 536.932 73.8087 534.371 76.4414C531.88 79.003 530.635 82.5608 530.635 87.1147C530.635 91.6687 531.88 95.2976 534.371 98.0015C536.932 100.634 540.027 101.951 543.656 101.951C547.285 101.951 550.345 100.634 552.835 98.0015C555.397 95.3688 556.678 91.7754 556.678 87.2215ZM624.423 56.8026C631.396 56.8026 636.946 59.0795 641.073 63.6335C645.271 68.1163 647.37 74.3068 647.37 82.205V117H629.225V84.6599C629.225 80.6752 628.194 77.5799 626.13 75.3741C624.067 73.1683 621.292 72.0654 617.805 72.0654C614.318 72.0654 611.543 73.1683 609.48 75.3741C607.416 77.5799 606.385 80.6752 606.385 84.6599V117H588.133V57.4429H606.385V65.3412C608.235 62.7084 610.725 60.6449 613.856 59.1507C616.987 57.5853 620.509 56.8026 624.423 56.8026Z" fill="#333333"/>
<path d="M703.493 117L678.304 83.9128V117H660.053V42.0734H678.304V74.9472L703.28 42.0734H724.733L695.702 78.7896L725.801 117H703.493ZM793.284 57.4429V117H775.033V108.888C773.183 111.521 770.657 113.656 767.455 115.292C764.324 116.858 760.837 117.64 756.995 117.64C752.441 117.64 748.421 116.644 744.934 114.652C741.448 112.588 738.744 109.635 736.822 105.793C734.901 101.951 733.941 97.4323 733.941 92.2379V57.4429H752.085V89.7831C752.085 93.7678 753.117 96.863 755.181 99.0688C757.244 101.275 760.019 102.378 763.506 102.378C767.063 102.378 769.874 101.275 771.938 99.0688C774.001 96.863 775.033 93.7678 775.033 89.7831V57.4429H793.284ZM824.645 38.0175V117H806.394V38.0175H824.645ZM847.051 51.2524C843.849 51.2524 841.216 50.3274 839.153 48.4774C837.16 46.5562 836.164 44.208 836.164 41.433C836.164 38.5868 837.16 36.2386 839.153 34.3886C841.216 32.4674 843.849 31.5068 847.051 31.5068C850.182 31.5068 852.743 32.4674 854.736 34.3886C856.799 36.2386 857.831 38.5868 857.831 41.433C857.831 44.208 856.799 46.5562 854.736 48.4774C852.743 50.3274 850.182 51.2524 847.051 51.2524ZM856.123 57.4429V117H837.872V57.4429H856.123ZM865.721 87.1147C865.721 80.9954 866.859 75.6231 869.136 70.998C871.485 66.3729 874.651 62.8152 878.636 60.3247C882.62 57.8343 887.068 56.5891 891.977 56.5891C896.175 56.5891 899.84 57.4429 902.971 59.1507C906.173 60.8584 908.628 63.0998 910.335 65.8749V57.4429H928.587V117H910.335V108.568C908.556 111.343 906.066 113.585 902.864 115.292C899.733 117 896.069 117.854 891.871 117.854C887.032 117.854 882.62 116.609 878.636 114.118C874.651 111.557 871.485 107.963 869.136 103.338C866.859 98.6419 865.721 93.2341 865.721 87.1147ZM910.335 87.2215C910.335 82.6675 909.055 79.0742 906.493 76.4414C904.003 73.8087 900.943 72.4923 897.314 72.4923C893.685 72.4923 890.59 73.8087 888.028 76.4414C885.538 79.003 884.293 82.5608 884.293 87.1147C884.293 91.6687 885.538 95.2976 888.028 98.0015C890.59 100.634 893.685 101.951 897.314 101.951C900.943 101.951 904.003 100.634 906.493 98.0015C909.055 95.3688 910.335 91.7754 910.335 87.2215ZM978.4 56.8026C985.231 56.8026 990.71 59.0795 994.837 63.6335C998.964 68.1163 1001.03 74.3068 1001.03 82.205V117H982.883V84.6599C982.883 80.6752 981.851 77.5799 979.788 75.3741C977.724 73.1683 974.949 72.0654 971.463 72.0654C967.976 72.0654 965.201 73.1683 963.137 75.3741C961.074 77.5799 960.042 80.6752 960.042 84.6599V117H941.791V38.0175H960.042V65.4479C961.892 62.8152 964.418 60.7161 967.62 59.1507C970.822 57.5853 974.415 56.8026 978.4 56.8026Z" fill="#5038BC"/>
</svg>
