<svg width="24" height="24" viewBox="0 0 24 24" fill="none" xmlns="http://www.w3.org/2000/svg">
<path d="M8.98657 16.2333L11.0532 17.8333C11.3199 18.1 11.9199 18.2333 12.3199 18.2333H14.8532C15.6532 18.2333 16.5199 17.6333 16.7199 16.8333L18.3199 11.9667C18.6532 11.0333 18.0532 10.2333 17.0532 10.2333H14.3866C13.9866 10.2333 13.6532 9.9 13.7199 9.43333L14.0532 7.3C14.1866 6.7 13.7866 6.03333 13.1866 5.83333C12.6532 5.63333 11.9866 5.9 11.7199 6.3L8.98657 10.3667" fill="white"/>
<path d="M8.98657 16.2333L11.0532 17.8333C11.3199 18.1 11.9199 18.2333 12.3199 18.2333H14.8532C15.6532 18.2333 16.5199 17.6333 16.7199 16.8333L18.3199 11.9667C18.6532 11.0333 18.0532 10.2333 17.0532 10.2333H14.3866C13.9866 10.2333 13.6532 9.9 13.7199 9.43333L14.0532 7.3C14.1866 6.7 13.7866 6.03333 13.1866 5.83333C12.6532 5.63333 11.9866 5.9 11.7199 6.3L8.98657 10.3667" stroke="#828282" stroke-miterlimit="10"/>
<path d="M5.58667 16.2334V9.70002C5.58667 8.76668 5.98667 8.43335 6.92 8.43335H7.58667C8.52 8.43335 8.92 8.76668 8.92 9.70002V16.2334C8.92 17.1667 8.52 17.5 7.58667 17.5H6.92C5.98667 17.5 5.58667 17.1667 5.58667 16.2334Z" fill="white" stroke="#828282" stroke-linecap="round" stroke-linejoin="round"/>
</svg>
